<svg id="Layer_1" data-name="Layer 1" xmlns="http://www.w3.org/2000/svg" viewBox="0 0 221.22 48.73"><title>cafe-features</title><path d="M22.84,32.4H1.7A.74.74,0,0,1,1,31.66V1.88a.74.74,0,0,1,.75-.75h28a.75.75,0,0,1,0,1.49H2.44V30.91h20.4a.76.76,0,0,1,.75.75A.75.75,0,0,1,22.84,32.4Z" transform="translate(-0.95 -0.77)"/><path d="M43.39,23.32a.75.75,0,0,1-.74-.75V2.62H36.54a.75.75,0,0,1,0-1.49h6.85a.74.74,0,0,1,.74.75V22.57A.75.75,0,0,1,43.39,23.32Z" transform="translate(-0.95 -0.77)"/><path d="M39,25.25H34.12a.75.75,0,0,1-.75-.74.76.76,0,0,1,.75-.75H39a.76.76,0,0,1,.75.75A.75.75,0,0,1,39,25.25Z" transform="translate(-0.95 -0.77)"/><path d="M25.26,25.25H1.7A.74.74,0,0,1,1,24.51a.75.75,0,0,1,.75-.75H25.26a.76.76,0,0,1,.75.75A.75.75,0,0,1,25.26,25.25Z" transform="translate(-0.95 -0.77)"/><path d="M37.58,20.94a.75.75,0,0,1-.74-.75V8.43H8.25V20.19a.76.76,0,0,1-.75.75.75.75,0,0,1-.74-.75V7.68a.74.74,0,0,1,.74-.74H37.58a.75.75,0,0,1,.75.74V20.19A.76.76,0,0,1,37.58,20.94Z" transform="translate(-0.95 -0.77)"/><path d="M31.33,14.83H13.76a.75.75,0,1,1,0-1.49H31.33a.75.75,0,0,1,0,1.49Z" transform="translate(-0.95 -0.77)"/><path d="M17.78,40.14A.75.75,0,0,1,17,39.4V31.66a.76.76,0,0,1,.75-.75.75.75,0,0,1,.74.75V39.4A.74.74,0,0,1,17.78,40.14Z" transform="translate(-0.95 -0.77)"/><path d="M22.84,40.14H9.74A.75.75,0,0,1,9,39.4a.76.76,0,0,1,.75-.75h13.1a.76.76,0,0,1,.75.75A.75.75,0,0,1,22.84,40.14Z" transform="translate(-0.95 -0.77)"/><path d="M22.84,49.38a.75.75,0,0,1-.74-.75v-18c0-4.87,3.4-8.84,7.59-8.84s7.59,4,7.59,8.84a.74.74,0,1,1-1.48,0c0-4.05-2.74-7.35-6.11-7.35s-6.1,3.3-6.1,7.35v18A.76.76,0,0,1,22.84,49.38Z" transform="translate(-0.95 -0.77)"/><path d="M36.54,49.38a.75.75,0,0,1-.74-.75A8.12,8.12,0,0,0,34,43.39a5.59,5.59,0,0,0-4.27-2.11c-3.37,0-6.1,3.3-6.1,7.35a.76.76,0,0,1-.75.75.75.75,0,0,1-.74-.75c0-4.88,3.4-8.84,7.59-8.84a7.06,7.06,0,0,1,5.41,2.64,9.58,9.58,0,0,1,2.18,6.2A.75.75,0,0,1,36.54,49.38Z" transform="translate(-0.95 -0.77)"/><path d="M50.24,49.38a.76.76,0,0,1-.75-.75v-18c0-4.05-2.73-7.35-6.1-7.35s-6.11,3.3-6.11,7.35V41.34a.74.74,0,0,1-1.48,0V30.67c0-4.87,3.4-8.84,7.59-8.84S51,25.8,51,30.67v18A.75.75,0,0,1,50.24,49.38Z" transform="translate(-0.95 -0.77)"/><path d="M50.24,49.38a.76.76,0,0,1-.75-.75,8.11,8.11,0,0,0-1.83-5.24,5.59,5.59,0,0,0-4.27-2.11c-3.37,0-6.11,3.3-6.11,7.35a.74.74,0,1,1-1.48,0c0-4.88,3.4-8.84,7.59-8.84a7.06,7.06,0,0,1,5.41,2.64A9.58,9.58,0,0,1,51,48.63.75.75,0,0,1,50.24,49.38Z" transform="translate(-0.95 -0.77)"/><path d="M107.88,5.52,98,1.42a4.45,4.45,0,0,0-3.4,0l-4.73,2a.83.83,0,1,0,.63,1.53l4.74-2a2.81,2.81,0,0,1,2.13,0l9.86,4.11a2.51,2.51,0,0,1,1.57,2.29V44.84a2.58,2.58,0,0,1-2.64,2.51h-1.34a.83.83,0,0,0,0,1.66h1.34a4.24,4.24,0,0,0,4.3-4.17V9.35A4.16,4.16,0,0,0,107.88,5.52Z" transform="translate(-0.95 -0.77)"/><path d="M101.22,47.35h-14a3.57,3.57,0,0,0,0-4.66,3.65,3.65,0,0,0,.91-.66,3.57,3.57,0,0,0,.14-4.89,3.66,3.66,0,0,0,.77-.59,3.57,3.57,0,0,0,.14-4.89,3.46,3.46,0,0,0,.79-.59A3.57,3.57,0,0,0,87.54,25H83.82V9.35A2.5,2.5,0,0,1,85.4,7.06l1.51-.63a.83.83,0,0,0,.44-1.09.82.82,0,0,0-1.08-.44l-1.51.62a4.16,4.16,0,0,0-2.6,3.83V25H78.69A19.32,19.32,0,0,0,78.4,13.1a3.14,3.14,0,0,0-1.18-1.66,3.25,3.25,0,0,0-1.93-.63,3.25,3.25,0,0,0-3.24,3.42c.26,5-2,6.71-5.23,9.08A38.51,38.51,0,0,0,63.5,26V24.91a.84.84,0,0,0-.83-.83h-8a.84.84,0,0,0-.83.83V48.45a.83.83,0,0,0,.83.83h8a.83.83,0,0,0,.83-.83V46.37a6.87,6.87,0,0,1,3.84,1.32,4.25,4.25,0,0,0,2.55.87H84.53a4.44,4.44,0,0,0,1.93.45h14.76a.83.83,0,0,0,0-1.66Zm-32.87-1A8.79,8.79,0,0,0,63.5,44.7V35a.83.83,0,0,0-1.66,0V47.62H55.48V25.74h6.36v5.65a.83.83,0,0,0,1.66,0v-3a28.48,28.48,0,0,1,4.31-3.72C71,22.27,74,20,73.7,14.14A1.61,1.61,0,0,1,74.14,13a1.56,1.56,0,0,1,1.15-.49,1.61,1.61,0,0,1,.95.31,1.53,1.53,0,0,1,.57.8c1.38,4.51,1.35,8.29-.06,11.92a.83.83,0,0,0,.77,1.14h10a1.91,1.91,0,0,1,0,3.82H84.13a.83.83,0,0,0,0,1.66h2.48a1.91,1.91,0,0,1,0,3.82H84.13a.83.83,0,1,0,0,1.66H85.7a1.91,1.91,0,0,1,0,3.82H83.22a.83.83,0,0,0,0,1.66h1.37a1.91,1.91,0,0,1,1.35,3.26,2,2,0,0,1-1.27.56H69.89a2.59,2.59,0,0,1-1.54-.53Z" transform="translate(-0.95 -0.77)"/><path d="M99.32,9.72a3.17,3.17,0,1,0-3.17,3.16A3.17,3.17,0,0,0,99.32,9.72Zm-4.67,0a1.51,1.51,0,1,1,1.5,1.5A1.51,1.51,0,0,1,94.65,9.72Z" transform="translate(-0.95 -0.77)"/><path d="M96.67,38H95.18a1.43,1.43,0,0,1-1.42-1.43.83.83,0,1,0-1.66,0,3.08,3.08,0,0,0,3,3.08v1.84a.83.83,0,0,0,1.66,0V39.69a3.08,3.08,0,0,0,3-3.08V35.47a2.45,2.45,0,0,0-1.69-2.34l-3.75-1.22a.78.78,0,0,1-.55-.75V29.51a1.16,1.16,0,0,1,1.16-1.15h2a1.15,1.15,0,0,1,1.15,1.15.83.83,0,0,0,1.66,0,2.81,2.81,0,0,0-2.81-2.81h-.18V24.87a.83.83,0,1,0-1.66,0V26.7h-.18a2.81,2.81,0,0,0-2.82,2.81v1.65a2.44,2.44,0,0,0,1.7,2.33l3.75,1.22a.8.8,0,0,1,.54.76v1.14A1.42,1.42,0,0,1,96.67,38Z" transform="translate(-0.95 -0.77)"/><path d="M160.49,11.3,141.51.88a1,1,0,0,0-.91,0l-7.16,3.93A1,1,0,0,0,133,5L121.62,11.3a1,1,0,0,0-.49.84v12.6A12.54,12.54,0,0,0,116,27.87a12.67,12.67,0,0,0-2.43,14.52,1,1,0,0,0,1.71-.84,10.76,10.76,0,1,1,5,5,1,1,0,0,0-.84,1.71,12.69,12.69,0,0,0,14.52-2.43A12.92,12.92,0,0,0,136.5,42l4.1,2.25a.92.92,0,0,0,.91,0l19-10.42A1,1,0,0,0,161,33V26.36a1,1,0,1,0-1.9,0v6L142,41.79V23.12L147.64,20v4.9a.95.95,0,0,0,1,.95.92.92,0,0,0,.45-.12l4.07-2.24a.94.94,0,0,0,.49-.83V16.75l5.47-3v5a.95.95,0,0,0,1.9,0V12.14A1,1,0,0,0,160.49,11.3ZM141.06,2.8l17,9.34-5.36,2.94-17-9.33Zm0,18.67-17-9.33,5.55-3.06,17,9.34Zm7.53-4.14L131.59,8l2.13-1.17,17,9.34ZM133.88,27.87a12.59,12.59,0,0,0-9-3.71,13.14,13.14,0,0,0-1.89.14V13.75l17.08,9.37V41.79l-3-1.63a12.74,12.74,0,0,0,.45-3.33A12.59,12.59,0,0,0,133.88,27.87Zm17.83-5.74-2.16,1.19V19l2.16-1.19Z" transform="translate(-0.95 -0.77)"/><path d="M160,21.6a1,1,0,0,0-.95.95,1,1,0,0,0,.28.68,1,1,0,0,0,.67.27.92.92,0,0,0,.95-.95,1,1,0,0,0-.27-.67A1,1,0,0,0,160,21.6Z" transform="translate(-0.95 -0.77)"/><path d="M121.72,37.78a1,1,0,0,0,.68-.28,1,1,0,0,0,0-1.35l-.66-.66h5.62a2.48,2.48,0,1,1,0,4.95H124a1,1,0,0,0,0,1.91h3.33a4.38,4.38,0,1,0,0-8.76h-5.62l.66-.66a1,1,0,0,0-1.35-1.35l-2.28,2.29a.93.93,0,0,0,0,1.34l2.28,2.29A1,1,0,0,0,121.72,37.78Z" transform="translate(-0.95 -0.77)"/><path d="M116.64,46.06a.93.93,0,0,1-.72-.34h0a1,1,0,0,1,.12-1.34,1,1,0,0,1,1.34.11.95.95,0,0,1-.73,1.57Z" transform="translate(-0.95 -0.77)"/><path d="M222.1,14.11l0-.09a1.43,1.43,0,0,0-.14-.2,1.05,1.05,0,0,0-.27-.2l-.11-.06,0,0-11-3.35-4.32-1.44a.87.87,0,0,0-.48,0l-6.26-1.91a1.06,1.06,0,0,0-.56,0l-22.07,6.72,0,0-.11.06a1.05,1.05,0,0,0-.27.2.86.86,0,0,0-.13.2.41.41,0,0,0,0,.09.88.88,0,0,0-.06.33h0v6.71h-3.84v1.92h9.59V21.17H178V15.81l5.76,2V26a1,1,0,0,0,.6.89l4.8,1.92a1,1,0,0,0,1.25-.53.92.92,0,0,0,.07-.36V20.14l7.67,2.68v22l-20.15-7v-.28a1,1,0,1,0-1.91,0v1a1,1,0,0,0,.64.9L198.83,47h0a1.28,1.28,0,0,0,.27,0h0a1.3,1.3,0,0,0,.33-.07h0l22.07-8.64a.94.94,0,0,0,.61-.88v-23h0A.72.72,0,0,0,222.1,14.11Zm-41.93.41,19-5.78,3.5,1.07L185,16.21Zm8.42,12-2.88-1.15V18.75l2.88,1.15ZM190.21,18l-2.3-.8,17.79-6.47,2.89.88Zm8.93,3.11-6-2.09,18.57-6.47,6.42,2Zm21.11,15.71L200.1,44.72V22.82l20.15-7Z" transform="translate(-0.95 -0.77)"/><rect x="163.65" y="27.13" width="3.84" height="1.92"/><rect x="166.53" y="32.88" width="2.88" height="1.92"/><path d="M178,33.65V31.73a1,1,0,1,0-1.91,0v1.92h-3.84v1.92h16.31V33.65Z" transform="translate(-0.95 -0.77)"/><rect x="166.53" y="20.41" width="2.88" height="1.92"/><path d="M178,27.89V25a1,1,0,1,0-1.91,0v2.88h-5.76v1.92h13.43V27.89Z" transform="translate(-0.95 -0.77)"/><rect x="196.27" y="0.26" width="14.39" height="1.92"/><rect x="191.48" y="0.26" width="2.88" height="1.92"/><rect x="174.2" y="46.32" width="14.39" height="1.92"/><rect x="169.41" y="46.32" width="2.88" height="1.92"/><path d="M205.33,22.23a1,1,0,0,0-1.23.33l-2.45,3.68,1.6,1.06.69-1v2.59h1.92v-4.2l1.39.69.86-1.72Z" transform="translate(-0.95 -0.77)"/><path d="M212.05,19.36a1,1,0,0,0-1.23.32l-2.45,3.68L210,24.42l.7-1V26h1.92v-4.2l1.39.69.85-1.72Z" transform="translate(-0.95 -0.77)"/></svg>